<svg width="174" height="74" viewBox="0 0 174 74" fill="none" xmlns="http://www.w3.org/2000/svg">
<g clip-path="url(#clip0_8_47004)">
<path d="M36.5509 19.8343V24.2738C36.5509 25.2168 35.7799 25.9809 34.8297 25.9809H23.4095C22.0789 25.9809 21.0002 27.0508 21.0002 28.371V32.1275C21.0002 33.0701 20.2293 33.8347 19.279 33.8347H14.803C13.8522 33.8347 13.0818 33.0701 13.0818 32.1275V27.6881C13.0818 26.7451 13.8522 25.9809 14.803 25.9809H18.4708C19.8019 25.9809 20.8806 24.9111 20.8806 23.5908V19.8343C20.8806 18.8913 21.6511 18.1272 22.6018 18.1272H34.8297C35.7799 18.1272 36.5509 18.8913 36.5509 19.8343Z" fill="#E5EE7D"/>
<path d="M16.448 50.7549H20.924C21.8748 50.7549 22.6452 49.9903 22.6452 49.0477V37.7209C22.6452 36.4012 23.7239 35.3313 25.055 35.3313H28.8425C29.7927 35.3313 30.5637 34.5667 30.5637 33.6241V29.1847C30.5637 28.2417 29.7927 27.4775 28.8425 27.4775H24.3664C23.4157 27.4775 22.6452 28.2417 22.6452 29.1847V32.8226C22.6452 34.1428 21.5665 35.2127 20.2354 35.2127H16.448C15.4972 35.2127 14.7268 35.9768 14.7268 36.9198V49.0477C14.7268 49.9903 15.4972 50.7549 16.448 50.7549Z" fill="#035638"/>
</g>
<path d="M34.9767 50.9755C33.9693 50.9755 33.2086 50.7123 32.6947 50.186C32.2013 49.6596 31.9546 49.0017 31.9546 48.2122V30.6001C31.9546 29.7296 32.2013 29.0109 32.6947 28.4441C33.2086 27.857 33.9693 27.5635 34.9767 27.5635C35.8812 27.5635 36.5802 27.857 37.0736 28.4441C37.567 29.0109 37.8137 29.7093 37.8137 30.5393V48.2122C37.8137 49.0017 37.567 49.6596 37.0736 50.186C36.5802 50.7123 35.8812 50.9755 34.9767 50.9755Z" fill="#035638"/>
<path d="M47.1367 51.0362C44.7314 51.0362 42.8092 50.3378 41.3701 48.941C39.9516 47.5239 39.2423 45.5299 39.2423 42.9589C39.2423 41.3799 39.5713 39.9932 40.2291 38.7988C40.887 37.6044 41.8018 36.6732 42.9737 36.0052C44.1661 35.3169 45.5537 34.9727 47.1367 34.9727C48.9047 34.9727 50.3747 35.3169 51.5465 36.0052C52.7183 36.6732 53.592 37.6044 54.1677 38.7988C54.7638 39.9932 55.0619 41.3799 55.0619 42.9589C55.0619 45.5299 54.4041 47.5239 53.0884 48.941C51.7932 50.3378 49.8093 51.0362 47.1367 51.0362ZM42.912 42.4427C42.912 43.0703 43.2306 43.5156 43.868 43.7788C44.5053 44.0217 45.5949 44.1432 47.1367 44.1432C48.6786 44.1432 49.7682 44.0217 50.4055 43.7788C51.0428 43.5156 51.3615 43.0703 51.3615 42.4427C51.3615 41.8354 51.0428 41.4103 50.4055 41.1673C49.7682 40.9244 48.6786 40.8029 47.1367 40.8029C45.5949 40.8029 44.5053 40.9244 43.868 41.1673C43.2306 41.4103 42.912 41.8354 42.912 42.4427Z" fill="#035638"/>
<path d="M62.6005 50.9755C61.4081 50.9755 60.4316 50.5908 59.6709 49.8216C58.9308 49.0523 58.2524 47.7871 57.6357 46.0259L55.292 39.1632C55.0248 38.3939 55.0145 37.6145 55.2612 36.825C55.5079 36.0355 56.0732 35.4991 56.9572 35.2156C57.7796 34.9322 58.53 34.9525 59.2084 35.2764C59.8868 35.6003 60.3596 36.157 60.6269 36.9465L63.1556 44.3861C63.4434 45.2566 63.7415 45.8437 64.0499 46.1473C64.3582 46.4307 64.7694 46.4915 65.2833 46.3295C65.7151 46.1878 65.9823 45.8841 66.0851 45.4185C66.2085 44.9327 66.0646 44.1027 65.6534 42.9285L64.3891 39.1632C64.1218 38.3737 64.1115 37.5943 64.3582 36.825C64.6255 36.0355 65.2011 35.4991 66.0851 35.2156C66.9075 34.9322 67.6578 34.9525 68.3363 35.2764C69.0147 35.6003 69.4875 36.157 69.7548 36.9465L72.3451 44.7201C72.5096 45.1857 72.7666 45.6109 73.1161 45.9955C73.4655 46.3801 73.9178 46.4915 74.4729 46.3295C74.9046 46.1878 75.1822 45.9044 75.3055 45.4793C75.4494 45.0541 75.4289 44.5582 75.2438 43.9913C74.9971 43.2221 74.7196 42.6148 74.4112 42.1694C74.1234 41.724 73.8356 41.3394 73.5478 41.0155C73.2805 40.6916 73.0544 40.3475 72.8694 39.9831C72.7049 39.6187 72.6021 39.1227 72.561 38.4951C72.5199 37.8473 72.6535 37.2805 72.9619 36.7947C73.2908 36.2886 73.7225 35.8938 74.257 35.6104C74.8121 35.327 75.4186 35.1853 76.0765 35.1853C77.0838 35.1853 77.8959 35.5193 78.5126 36.1873C79.1499 36.8352 79.4686 37.6044 79.4686 38.4951C79.4686 38.819 79.4172 39.2442 79.3144 39.7705C79.2116 40.2968 79.078 40.7827 78.9135 41.2281L77.6183 44.5379C77.3511 45.2667 77.0427 46.0157 76.6932 46.785C76.3643 47.534 75.9737 48.2223 75.5214 48.8499C75.0897 49.4774 74.586 49.9936 74.0103 50.3985C73.4347 50.7832 72.7666 50.9755 72.0059 50.9755C70.6902 50.9755 69.6314 50.6414 68.8297 49.9734C68.0484 49.3054 67.4317 48.2021 66.9794 46.6635H66.671C66.4038 47.9187 65.9618 48.9511 65.345 49.7608C64.7283 50.5706 63.8134 50.9755 62.6005 50.9755Z" fill="#035638"/>
<path d="M91.3586 50.9755C90.2279 50.9755 89.2822 50.6313 88.5215 49.943C87.7814 49.2547 87.3086 48.364 87.103 47.2708H86.5479V54.255C86.5479 55.085 86.3115 55.7834 85.8387 56.3502C85.3658 56.9373 84.6463 57.2308 83.68 57.2308C82.7549 57.2308 82.0354 56.9373 81.5214 56.3502C81.028 55.7834 80.7813 55.0647 80.7813 54.1942V42.8374C80.7813 41.8253 80.7402 40.975 80.658 40.2867C80.5963 39.5782 80.5346 38.9405 80.473 38.3737C80.3907 37.5234 80.5655 36.8048 80.9972 36.2177C81.4289 35.6104 82.1279 35.246 83.0941 35.1245C84.3482 34.9626 85.2322 35.1853 85.7462 35.7926C86.2807 36.3797 86.5479 37.3008 86.5479 38.5559V40.0134L86.6713 40.0438C86.7741 39.2543 87.0105 38.485 87.3805 37.736C87.7711 36.9667 88.3159 36.3392 89.0149 35.8533C89.7139 35.3472 90.5979 35.0942 91.6669 35.0942C93.4555 35.0942 94.7815 35.8027 95.645 37.2198C96.529 38.6166 96.971 40.4892 96.971 42.8374C96.971 48.2628 95.1002 50.9755 91.3586 50.9755ZM86.4246 42.7767C86.4246 43.1006 86.4657 43.3537 86.5479 43.5359C86.6713 43.9205 86.9283 44.2039 87.3189 44.3861C87.73 44.5481 88.3365 44.629 89.1383 44.629C90.1662 44.629 90.8652 44.4772 91.2352 44.1735C91.6258 43.8699 91.8211 43.4043 91.8211 42.7767C91.8211 42.1289 91.6361 41.6633 91.2661 41.3799C90.896 41.0762 90.197 40.9244 89.1691 40.9244C88.3468 40.9244 87.73 41.0155 87.3189 41.1977C86.9283 41.3596 86.6713 41.6329 86.5479 42.0176C86.4657 42.1998 86.4246 42.4528 86.4246 42.7767Z" fill="#035638"/>
<path d="M98.0864 43.0804C98.0864 41.4811 98.4051 40.0742 99.0424 38.8595C99.7002 37.6449 100.625 36.6934 101.818 36.0052C103.031 35.3169 104.47 34.9727 106.135 34.9727C107.43 34.9727 108.592 35.2055 109.62 35.6711C110.668 36.1367 111.49 36.7643 112.087 37.5538C112.683 38.3231 112.981 39.1733 112.981 40.1045C112.981 41.0762 112.693 41.7645 112.117 42.1694C111.542 42.5743 110.689 42.7767 109.558 42.7767H103.082C103.082 43.3031 103.288 43.7383 103.699 44.0824C104.131 44.4266 104.85 44.5987 105.857 44.5987C106.371 44.5987 106.844 44.5481 107.276 44.4468C107.728 44.3456 108.181 44.2545 108.633 44.1735C109.106 44.0723 109.63 44.0217 110.206 44.0217C111.028 44.0217 111.706 44.3152 112.241 44.9023C112.775 45.4691 113.043 46.2587 113.043 47.2708C113.043 48.4652 112.416 49.3965 111.161 50.0645C109.928 50.7325 108.304 51.0666 106.289 51.0666C104.871 51.0666 103.534 50.7933 102.28 50.2467C101.047 49.7001 100.039 48.8397 99.2582 47.6656C98.477 46.4712 98.0864 44.9428 98.0864 43.0804ZM108.078 41.7746C108.386 41.7746 108.489 41.6329 108.386 41.3495C108.304 41.0661 108.057 40.7726 107.646 40.4689C107.235 40.1653 106.639 40.0134 105.857 40.0134C104.953 40.0134 104.274 40.2058 103.822 40.5904C103.39 40.975 103.175 41.3698 103.175 41.7746H108.078Z" fill="#035638"/>
<path d="M117.433 50.9755C116.528 50.9755 115.798 50.7123 115.243 50.186C114.709 49.6394 114.442 48.9713 114.442 48.1818V38.1308C114.442 37.2805 114.699 36.5619 115.213 35.9748C115.726 35.3877 116.467 35.0942 117.433 35.0942C118.378 35.0942 119.098 35.3877 119.591 35.9748C120.085 36.5619 120.332 37.3008 120.332 38.1915V39.7098H120.887C120.887 38.5559 121.092 37.6449 121.503 36.9769C121.935 36.3088 122.48 35.8331 123.138 35.5497C123.796 35.246 124.453 35.0942 125.111 35.0942C126.694 35.0942 127.856 35.661 128.596 36.7947C129.336 37.9081 129.706 39.4972 129.706 41.5621V48.1818C129.706 48.9713 129.439 49.6394 128.904 50.186C128.37 50.7123 127.65 50.9755 126.746 50.9755C125.821 50.9755 125.08 50.7123 124.525 50.186C123.991 49.6394 123.724 48.9713 123.724 48.1818V42.8071C123.724 42.0783 123.58 41.5115 123.292 41.1066C123.025 40.7017 122.624 40.4993 122.089 40.4993C121.473 40.4993 121.02 40.722 120.732 41.1673C120.465 41.6127 120.332 42.1795 120.332 42.8678V48.1818C120.332 48.9713 120.075 49.6394 119.561 50.186C119.047 50.7123 118.337 50.9755 117.433 50.9755Z" fill="#035638"/>
<path d="M139.077 51.3702C137.658 51.3702 136.343 51.2386 135.13 50.9755C133.937 50.6921 132.981 50.2568 132.262 49.6697C131.542 49.0624 131.182 48.2628 131.182 47.2708C131.182 46.4004 131.45 45.6817 131.984 45.1149C132.519 44.5481 133.228 44.2646 134.112 44.2646C134.667 44.2646 135.222 44.3557 135.777 44.5379C136.353 44.6999 136.959 44.8618 137.597 45.0238C138.234 45.1857 138.923 45.2667 139.663 45.2667C140.321 45.2667 140.763 45.2363 140.989 45.1756C141.215 45.0946 141.328 44.9529 141.328 44.7505C141.328 44.5076 141.184 44.3456 140.896 44.2646C140.629 44.1837 140.166 44.0824 139.509 43.961L137.288 43.5359C136.363 43.3537 135.459 43.1209 134.575 42.8374C133.711 42.5338 132.992 42.0884 132.416 41.5014C131.861 40.9143 131.583 40.1147 131.583 39.1025C131.583 37.7259 132.2 36.653 133.434 35.8837C134.688 35.1144 136.497 34.7298 138.861 34.7298C140.218 34.7298 141.431 34.8614 142.5 35.1245C143.589 35.3877 144.453 35.7825 145.09 36.3088C145.727 36.8149 146.046 37.4526 146.046 38.2219C146.067 39.0519 145.841 39.7199 145.368 40.226C144.895 40.7321 144.299 40.9851 143.579 40.9851C143.065 40.9851 142.541 40.9244 142.006 40.8029C141.492 40.6612 140.927 40.5195 140.31 40.3778C139.714 40.2159 139.025 40.1248 138.244 40.1045C137.689 40.064 137.237 40.0944 136.887 40.1956C136.538 40.2968 136.363 40.4588 136.363 40.6815C136.363 40.9244 136.569 41.0965 136.98 41.1977C137.391 41.2787 138.008 41.39 138.83 41.5317L141.02 41.9265C142.356 42.1492 143.415 42.4326 144.196 42.7767C144.998 43.1006 145.573 43.5561 145.923 44.1432C146.272 44.7302 146.447 45.54 146.447 46.5724C146.447 47.6454 146.128 48.5462 145.491 49.275C144.874 49.9835 144.011 50.5099 142.901 50.854C141.791 51.1982 140.516 51.3702 139.077 51.3702Z" fill="#035638"/>
<path d="M147.535 43.0804C147.535 41.4811 147.853 40.0742 148.491 38.8595C149.149 37.6449 150.074 36.6934 151.266 36.0052C152.479 35.3169 153.918 34.9727 155.583 34.9727C156.878 34.9727 158.04 35.2055 159.068 35.6711C160.116 36.1367 160.939 36.7643 161.535 37.5538C162.131 38.3231 162.429 39.1733 162.429 40.1045C162.429 41.0762 162.141 41.7645 161.566 42.1694C160.99 42.5743 160.137 42.7767 159.006 42.7767H152.53C152.53 43.3031 152.736 43.7383 153.147 44.0824C153.579 44.4266 154.298 44.5987 155.306 44.5987C155.82 44.5987 156.293 44.5481 156.724 44.4468C157.177 44.3456 157.629 44.2545 158.081 44.1735C158.554 44.0723 159.078 44.0217 159.654 44.0217C160.476 44.0217 161.155 44.3152 161.689 44.9023C162.224 45.4691 162.491 46.2587 162.491 47.2708C162.491 48.4652 161.864 49.3965 160.61 50.0645C159.376 50.7325 157.752 51.0666 155.737 51.0666C154.319 51.0666 152.983 50.7933 151.729 50.2467C150.495 49.7001 149.488 48.8397 148.707 47.6656C147.925 46.4712 147.535 44.9428 147.535 43.0804ZM157.526 41.7746C157.834 41.7746 157.937 41.6329 157.834 41.3495C157.752 41.0661 157.505 40.7726 157.094 40.4689C156.683 40.1653 156.087 40.0134 155.306 40.0134C154.401 40.0134 153.723 40.2058 153.27 40.5904C152.839 40.975 152.623 41.3698 152.623 41.7746H157.526Z" fill="#035638"/>
<defs>
<clipPath id="clip0_8_47004">
<rect width="23.4691" height="32.6277" fill="white" transform="translate(13.0818 18.1272)"/>
</clipPath>
</defs>
</svg>
