<svg width="152" height="40" viewBox="0 0 152 40" fill="none" xmlns="http://www.w3.org/2000/svg">
<g clip-path="url(#clip0_277_5236)">
<path d="M24.3409 2.15962V6.63468C24.3409 7.58526 23.5638 8.35552 22.6059 8.35552H11.0942C9.75289 8.35552 8.66555 9.43399 8.66555 10.7648V14.5514C8.66555 15.5015 7.88845 16.2723 6.93053 16.2723H2.41861C1.4602 16.2723 0.683594 15.5015 0.683594 14.5514V10.0764C0.683594 9.12578 1.4602 8.35552 2.41861 8.35552H6.11589C7.45766 8.35552 8.545 7.27706 8.545 5.94625V2.15962C8.545 1.20904 9.32161 0.438782 10.28 0.438782H22.6059C23.5638 0.438782 24.3409 1.20904 24.3409 2.15962Z" fill="#E5EE7D"/>
<path d="M4.07681 33.3282H8.58874C9.54714 33.3282 10.3237 32.5574 10.3237 31.6074V20.1897C10.3237 18.8593 11.4111 17.7809 12.7529 17.7809H16.5707C17.5286 17.7809 18.3057 17.0101 18.3057 16.06V11.585C18.3057 10.6344 17.5286 9.86414 16.5707 9.86414H12.0588C11.1004 9.86414 10.3237 10.6344 10.3237 11.585V15.252C10.3237 16.5829 9.2364 17.6613 7.89463 17.6613H4.07681C3.1184 17.6613 2.3418 18.4316 2.3418 19.3822V31.6074C2.3418 32.5574 3.1184 33.3282 4.07681 33.3282Z" fill="#035638"/>
</g>
<path d="M22.7533 33.5506C21.7379 33.5506 20.9711 33.2853 20.4531 32.7548C19.9557 32.2242 19.707 31.561 19.707 30.7652V13.0117C19.707 12.1343 19.9557 11.4099 20.4531 10.8385C20.9711 10.2467 21.7379 9.95081 22.7533 9.95081C23.6652 9.95081 24.3698 10.2467 24.8671 10.8385C25.3645 11.4099 25.6131 12.1139 25.6131 12.9505V30.7652C25.6131 31.561 25.3645 32.2242 24.8671 32.7548C24.3698 33.2853 23.6652 33.5506 22.7533 33.5506Z" fill="#035638"/>
<path d="M35.011 33.6118C32.5863 33.6118 30.6487 32.9078 29.1981 31.4998C27.7682 30.0714 27.0532 28.0613 27.0532 25.4697C27.0532 23.8781 27.3848 22.4802 28.048 21.2763C28.7111 20.0723 29.6333 19.1336 30.8145 18.4602C32.0165 17.7664 33.4153 17.4195 35.011 17.4195C36.7932 17.4195 38.2749 17.7664 39.4561 18.4602C40.6373 19.1336 41.518 20.0723 42.0983 21.2763C42.6993 22.4802 42.9998 23.8781 42.9998 25.4697C42.9998 28.0613 42.3366 30.0714 41.0103 31.4998C39.7048 32.9078 37.705 33.6118 35.011 33.6118ZM30.7523 24.9494C30.7523 25.582 31.0735 26.0309 31.716 26.2962C32.3584 26.5411 33.4567 26.6635 35.011 26.6635C36.5652 26.6635 37.6635 26.5411 38.306 26.2962C38.9484 26.0309 39.2696 25.582 39.2696 24.9494C39.2696 24.3372 38.9484 23.9087 38.306 23.6638C37.6635 23.4189 36.5652 23.2965 35.011 23.2965C33.4567 23.2965 32.3584 23.4189 31.716 23.6638C31.0735 23.9087 30.7523 24.3372 30.7523 24.9494Z" fill="#035638"/>
<path d="M50.5988 33.5506C49.3968 33.5506 48.4125 33.1629 47.6457 32.3875C46.8997 31.612 46.2158 30.3366 45.5941 28.5613L43.2317 21.6436C42.9623 20.8681 42.9519 20.0825 43.2006 19.2867C43.4493 18.4908 44.0192 17.9501 44.9103 17.6644C45.7392 17.3787 46.4956 17.3991 47.1795 17.7256C47.8633 18.0521 48.34 18.6133 48.6094 19.4091L51.1583 26.9084C51.4484 27.7859 51.7489 28.3776 52.0598 28.6837C52.3706 28.9694 52.7851 29.0306 53.3032 28.8674C53.7383 28.7245 54.0078 28.4184 54.1114 27.9491C54.2357 27.4594 54.0906 26.6227 53.6762 25.4391L52.4017 21.6436C52.1323 20.8477 52.1219 20.0621 52.3706 19.2867C52.64 18.4908 53.2203 17.9501 54.1114 17.6644C54.9403 17.3787 55.6967 17.3991 56.3806 17.7256C57.0644 18.0521 57.5411 18.6133 57.8105 19.4091L60.4216 27.2451C60.5874 27.7144 60.8464 28.143 61.1987 28.5307C61.551 28.9184 62.0069 29.0306 62.5664 28.8674C63.0016 28.7245 63.2814 28.4389 63.4057 28.0103C63.5508 27.5818 63.5301 27.0818 63.3436 26.5105C63.0949 25.735 62.8151 25.1228 62.5043 24.6739C62.2141 24.225 61.924 23.8372 61.6339 23.5107C61.3645 23.1842 61.1365 22.8373 60.95 22.47C60.7842 22.1027 60.6806 21.6028 60.6392 20.9702C60.5977 20.3172 60.7324 19.7458 61.0433 19.256C61.3749 18.7459 61.81 18.348 62.3488 18.0623C62.9084 17.7766 63.5197 17.6338 64.1828 17.6338C65.1983 17.6338 66.0169 17.9705 66.6385 18.6439C67.281 19.2969 67.6022 20.0723 67.6022 20.9702C67.6022 21.2967 67.5504 21.7252 67.4468 22.2558C67.3431 22.7863 67.2084 23.2761 67.0427 23.725L65.7371 27.0614C65.4677 27.7961 65.1568 28.5511 64.8045 29.3265C64.473 30.0816 64.0792 30.7754 63.6233 31.408C63.1881 32.0406 62.6804 32.5609 62.1002 32.969C61.5199 33.3568 60.8464 33.5506 60.0797 33.5506C58.7534 33.5506 57.6861 33.2139 56.8779 32.5405C56.0904 31.8671 55.4687 30.755 55.0128 29.2041H54.702C54.4326 30.4693 53.987 31.51 53.3653 32.3262C52.7436 33.1425 51.8215 33.5506 50.5988 33.5506Z" fill="#035638"/>
<path d="M79.5876 33.5506C78.4478 33.5506 77.4945 33.2037 76.7278 32.5099C75.9817 31.8161 75.5051 30.9182 75.2979 29.8163H74.7383V36.8564C74.7383 37.6931 74.5 38.3971 74.0234 38.9685C73.5467 39.5603 72.8214 39.8561 71.8474 39.8561C70.9149 39.8561 70.1896 39.5603 69.6715 38.9685C69.1741 38.3971 68.9255 37.6727 68.9255 36.7952V25.3473C68.9255 24.327 68.884 23.4699 68.8011 22.7761C68.739 22.0619 68.6768 21.4191 68.6146 20.8477C68.5317 19.9907 68.7079 19.2663 69.1431 18.6745C69.5782 18.0623 70.2828 17.695 71.2568 17.5725C72.5209 17.4093 73.412 17.6338 73.9301 18.2459C74.4689 18.8377 74.7383 19.7662 74.7383 21.0314V22.5006L74.8627 22.5312C74.9663 21.7354 75.2046 20.96 75.5776 20.2049C75.9714 19.4295 76.5205 18.7969 77.2251 18.3072C77.9297 17.797 78.8208 17.5419 79.8984 17.5419C81.7013 17.5419 83.038 18.2561 83.9083 19.6846C84.7994 21.0926 85.245 22.9802 85.245 25.3473C85.245 30.8162 83.3592 33.5506 79.5876 33.5506ZM74.614 25.2861C74.614 25.6126 74.6554 25.8677 74.7383 26.0513C74.8627 26.439 75.1217 26.7247 75.5154 26.9084C75.9299 27.0716 76.5412 27.1533 77.3494 27.1533C78.3856 27.1533 79.0902 27.0002 79.4632 26.6941C79.857 26.388 80.0538 25.9187 80.0538 25.2861C80.0538 24.6331 79.8673 24.1637 79.4943 23.8781C79.1213 23.572 78.4167 23.4189 77.3805 23.4189C76.5516 23.4189 75.9299 23.5107 75.5154 23.6944C75.1217 23.8577 74.8627 24.1331 74.7383 24.5209C74.6554 24.7045 74.614 24.9596 74.614 25.2861Z" fill="#035638"/>
<path d="M86.3694 25.5922C86.3694 23.9801 86.6906 22.5619 87.333 21.3375C87.9962 20.1131 88.9287 19.154 90.1307 18.4602C91.3533 17.7664 92.8039 17.4195 94.4825 17.4195C95.7881 17.4195 96.959 17.6542 97.9951 18.1235C99.052 18.5928 99.8809 19.2254 100.482 20.0213C101.083 20.7967 101.383 21.6538 101.383 22.5925C101.383 23.572 101.093 24.2658 100.513 24.6739C99.9327 25.082 99.0727 25.2861 97.9329 25.2861H91.4051C91.4051 25.8167 91.6124 26.2554 92.0268 26.6023C92.462 26.9492 93.1873 27.1227 94.2028 27.1227C94.7208 27.1227 95.1975 27.0716 95.6327 26.9696C96.0886 26.8676 96.5445 26.7757 97.0004 26.6941C97.477 26.5921 98.0055 26.5411 98.5857 26.5411C99.4147 26.5411 100.099 26.837 100.637 27.4287C101.176 28.0001 101.446 28.796 101.446 29.8163C101.446 31.0202 100.813 31.9589 99.5494 32.6323C98.306 33.3057 96.6688 33.6424 94.638 33.6424C93.2081 33.6424 91.861 33.367 90.5969 32.816C89.3535 32.265 88.3381 31.3978 87.5506 30.2142C86.7631 29.0102 86.3694 27.4696 86.3694 25.5922ZM96.4409 24.276C96.7517 24.276 96.8553 24.1331 96.7517 23.8475C96.6688 23.5618 96.4201 23.2659 96.0057 22.9598C95.5912 22.6537 94.9902 22.5006 94.2028 22.5006C93.2909 22.5006 92.6071 22.6945 92.1512 23.0822C91.716 23.4699 91.4984 23.8679 91.4984 24.276H96.4409Z" fill="#035638"/>
<path d="M105.871 33.5506C104.959 33.5506 104.223 33.2853 103.664 32.7548C103.125 32.2038 102.856 31.5304 102.856 30.7346V20.6029C102.856 19.7458 103.115 19.0214 103.633 18.4296C104.151 17.8378 104.897 17.5419 105.871 17.5419C106.824 17.5419 107.55 17.8378 108.047 18.4296C108.544 19.0214 108.793 19.7662 108.793 20.6641V22.1945H109.352C109.352 21.0314 109.56 20.1131 109.974 19.4397C110.409 18.7663 110.959 18.2868 111.622 18.0011C112.285 17.695 112.948 17.5419 113.611 17.5419C115.207 17.5419 116.378 18.1133 117.124 19.256C117.87 20.3784 118.243 21.9803 118.243 24.0617V30.7346C118.243 31.5304 117.973 32.2038 117.435 32.7548C116.896 33.2853 116.17 33.5506 115.259 33.5506C114.326 33.5506 113.58 33.2853 113.02 32.7548C112.482 32.2038 112.212 31.5304 112.212 30.7346V25.3167C112.212 24.5821 112.067 24.0107 111.777 23.6026C111.508 23.1945 111.104 22.9904 110.565 22.9904C109.943 22.9904 109.487 23.2149 109.197 23.6638C108.928 24.1127 108.793 24.6841 108.793 25.3779V30.7346C108.793 31.5304 108.534 32.2038 108.016 32.7548C107.498 33.2853 106.783 33.5506 105.871 33.5506Z" fill="#035638"/>
<path d="M127.689 33.9485C126.259 33.9485 124.932 33.8159 123.71 33.5506C122.508 33.2649 121.544 32.8262 120.819 32.2344C120.094 31.6222 119.731 30.8162 119.731 29.8163C119.731 28.9388 120 28.2144 120.539 27.643C121.078 27.0716 121.793 26.7859 122.684 26.7859C123.244 26.7859 123.803 26.8778 124.363 27.0614C124.943 27.2247 125.554 27.3879 126.197 27.5512C126.839 27.7144 127.533 27.7961 128.279 27.7961C128.942 27.7961 129.388 27.7654 129.616 27.7042C129.844 27.6226 129.958 27.4798 129.958 27.2757C129.958 27.0308 129.813 26.8676 129.523 26.7859C129.253 26.7043 128.787 26.6023 128.124 26.4799L125.886 26.0513C124.953 25.8677 124.041 25.633 123.15 25.3473C122.28 25.0412 121.555 24.5923 120.974 24.0005C120.415 23.4087 120.135 22.6027 120.135 21.5824C120.135 20.1947 120.757 19.1132 122 18.3378C123.264 17.5623 125.088 17.1746 127.471 17.1746C128.839 17.1746 130.061 17.3073 131.139 17.5725C132.237 17.8378 133.108 18.2357 133.75 18.7663C134.393 19.2765 134.714 19.9193 134.714 20.6947C134.735 21.5313 134.507 22.2048 134.03 22.7149C133.553 23.2251 132.952 23.4801 132.227 23.4801C131.709 23.4801 131.181 23.4189 130.642 23.2965C130.124 23.1536 129.554 23.0108 128.932 22.868C128.331 22.7047 127.637 22.6129 126.849 22.5925C126.29 22.5517 125.834 22.5823 125.482 22.6843C125.129 22.7863 124.953 22.9496 124.953 23.174C124.953 23.4189 125.16 23.5924 125.575 23.6944C125.989 23.776 126.611 23.8883 127.44 24.0311L129.647 24.429C130.994 24.6535 132.061 24.9392 132.849 25.2861C133.657 25.6126 134.237 26.0717 134.589 26.6635C134.942 27.2553 135.118 28.0715 135.118 29.1123C135.118 30.1938 134.797 31.1019 134.154 31.8365C133.533 32.5507 132.662 33.0813 131.543 33.4282C130.424 33.7751 129.139 33.9485 127.689 33.9485Z" fill="#035638"/>
<path d="M136.214 25.5922C136.214 23.9801 136.536 22.5619 137.178 21.3375C137.841 20.1131 138.774 19.154 139.976 18.4602C141.198 17.7664 142.649 17.4195 144.328 17.4195C145.633 17.4195 146.804 17.6542 147.84 18.1235C148.897 18.5928 149.726 19.2254 150.327 20.0213C150.928 20.7967 151.228 21.6538 151.228 22.5925C151.228 23.572 150.938 24.2658 150.358 24.6739C149.778 25.082 148.918 25.2861 147.778 25.2861H141.25C141.25 25.8167 141.457 26.2554 141.872 26.6023C142.307 26.9492 143.032 27.1227 144.048 27.1227C144.566 27.1227 145.042 27.0716 145.478 26.9696C145.934 26.8676 146.389 26.7757 146.845 26.6941C147.322 26.5921 147.85 26.5411 148.431 26.5411C149.26 26.5411 149.944 26.837 150.482 27.4287C151.021 28.0001 151.291 28.796 151.291 29.8163C151.291 31.0202 150.658 31.9589 149.394 32.6323C148.151 33.3057 146.514 33.6424 144.483 33.6424C143.053 33.6424 141.706 33.367 140.442 32.816C139.199 32.265 138.183 31.3978 137.396 30.2142C136.608 29.0102 136.214 27.4696 136.214 25.5922ZM146.286 24.276C146.597 24.276 146.7 24.1331 146.597 23.8475C146.514 23.5618 146.265 23.2659 145.851 22.9598C145.436 22.6537 144.835 22.5006 144.048 22.5006C143.136 22.5006 142.452 22.6945 141.996 23.0822C141.561 23.4699 141.343 23.8679 141.343 24.276H146.286Z" fill="#035638"/>
<defs>
<clipPath id="clip0_277_5236">
<rect width="23.6573" height="32.8895" fill="white" transform="translate(0.683594 0.438782)"/>
</clipPath>
</defs>
</svg>
