<svg width="20" height="20" viewBox="0 0 20 20" fill="none" xmlns="http://www.w3.org/2000/svg">
<path opacity="0.4" d="M15.8327 8.56658V14.5249C15.8077 16.8999 15.1577 17.4999 12.6827 17.4999H4.81604C2.29937 17.4999 1.66602 16.8749 1.66602 14.3916V8.56658C1.66602 6.31658 2.19102 5.59159 4.16602 5.47492C4.36602 5.46659 4.58271 5.45825 4.81604 5.45825H12.6827C15.1993 5.45825 15.8327 6.08325 15.8327 8.56658Z" fill="#B1CBC1"/>
<path d="M18.3327 5.60833V11.4333C18.3327 13.6833 17.8077 14.4083 15.8327 14.525V8.56667C15.8327 6.08333 15.1993 5.45833 12.6827 5.45833H4.81604C4.58271 5.45833 4.36602 5.46667 4.16602 5.475C4.19102 3.1 4.84104 2.5 7.31604 2.5H15.1827C17.6993 2.5 18.3327 3.125 18.3327 5.60833Z" fill="#B1CBC1"/>
<path d="M5.80055 15.4666H4.36719C4.02552 15.4666 3.74219 15.1832 3.74219 14.8416C3.74219 14.4999 4.02552 14.2166 4.36719 14.2166H5.80055C6.14221 14.2166 6.42555 14.4999 6.42555 14.8416C6.42555 15.1832 6.15055 15.4666 5.80055 15.4666Z" fill="#B1CBC1"/>
<path d="M10.4585 15.4666H7.5918C7.25013 15.4666 6.9668 15.1832 6.9668 14.8416C6.9668 14.4999 7.25013 14.2166 7.5918 14.2166H10.4585C10.8001 14.2166 11.0835 14.4999 11.0835 14.8416C11.0835 15.1832 10.8085 15.4666 10.4585 15.4666Z" fill="#B1CBC1"/>
<path d="M15.8327 9.8833H1.66602V11.1333H15.8327V9.8833Z" fill="#B1CBC1"/>
</svg>
