<svg width="48" height="48" viewBox="0 0 48 48" fill="none" xmlns="http://www.w3.org/2000/svg">
<path opacity="0.4" d="M44 18V32.92C44 37.5 40.28 41.2 35.7 41.2H12.3C7.72 41.2 4 37.5 4 32.92V18H44Z" fill="#292D32"/>
<path d="M44 15.08V18H4V15.08C4 10.5 7.72 6.79999 12.3 6.79999H35.7C40.28 6.79999 44 10.5 44 15.08Z" fill="#292D32"/>
<path d="M16 34.5H12C11.18 34.5 10.5 33.82 10.5 33C10.5 32.18 11.18 31.5 12 31.5H16C16.82 31.5 17.5 32.18 17.5 33C17.5 33.82 16.82 34.5 16 34.5Z" fill="#292D32"/>
<path d="M29 34.5H21C20.18 34.5 19.5 33.82 19.5 33C19.5 32.18 20.18 31.5 21 31.5H29C29.82 31.5 30.5 32.18 30.5 33C30.5 33.82 29.82 34.5 29 34.5Z" fill="#292D32"/>
</svg>
