<svg width="16" height="16" viewBox="0 0 16 16" fill="none" xmlns="http://www.w3.org/2000/svg">
<path opacity="0.4" d="M12.6663 6.85337V11.62C12.6463 13.52 12.1263 14 10.1463 14H3.85303C1.83969 14 1.33301 13.5 1.33301 11.5134V6.85337C1.33301 5.05337 1.75301 4.47337 3.33301 4.38003C3.49301 4.37337 3.66636 4.3667 3.85303 4.3667H10.1463C12.1597 4.3667 12.6663 4.8667 12.6663 6.85337Z" fill="#035638"/>
<path d="M14.6663 4.48667V9.14667C14.6663 10.9467 14.2463 11.5267 12.6663 11.62V6.85333C12.6663 4.86667 12.1597 4.36667 10.1463 4.36667H3.85303C3.66636 4.36667 3.49301 4.37333 3.33301 4.38C3.35301 2.48 3.87303 2 5.85303 2H12.1463C14.1597 2 14.6663 2.5 14.6663 4.48667Z" fill="#035638"/>
<path d="M4.63985 12.3733H3.49316C3.21983 12.3733 2.99316 12.1466 2.99316 11.8733C2.99316 11.6 3.21983 11.3733 3.49316 11.3733H4.63985C4.91319 11.3733 5.13985 11.6 5.13985 11.8733C5.13985 12.1466 4.91985 12.3733 4.63985 12.3733Z" fill="#035638"/>
<path d="M8.36658 12.3733H6.07324C5.79991 12.3733 5.57324 12.1466 5.57324 11.8733C5.57324 11.6 5.79991 11.3733 6.07324 11.3733H8.36658C8.63991 11.3733 8.86658 11.6 8.86658 11.8733C8.86658 12.1466 8.64658 12.3733 8.36658 12.3733Z" fill="#035638"/>
<path d="M12.6663 7.90674H1.33301V8.90674H12.6663V7.90674Z" fill="#035638"/>
</svg>
