<svg width="18" height="18" viewBox="0 0 18 18" fill="none" xmlns="http://www.w3.org/2000/svg">
<path opacity="0.4" d="M14.25 7.7101V13.0726C14.2275 15.2101 13.6425 15.7501 11.415 15.7501H4.33502C2.07002 15.7501 1.5 15.1876 1.5 12.9526V7.7101C1.5 5.6851 1.9725 5.0326 3.75 4.9276C3.93 4.9201 4.12502 4.9126 4.33502 4.9126H11.415C13.68 4.9126 14.25 5.4751 14.25 7.7101Z" fill="#838794"/>
<path d="M16.5 5.0475V10.29C16.5 12.315 16.0275 12.9675 14.25 13.0725V7.71C14.25 5.475 13.68 4.9125 11.415 4.9125H4.33502C4.12502 4.9125 3.93 4.92 3.75 4.9275C3.7725 2.79 4.35752 2.25 6.58502 2.25H13.665C15.93 2.25 16.5 2.8125 16.5 5.0475Z" fill="#838794"/>
<path d="M5.2202 13.9199H3.93018C3.62268 13.9199 3.36768 13.6649 3.36768 13.3574C3.36768 13.0499 3.62268 12.7949 3.93018 12.7949H5.2202C5.5277 12.7949 5.7827 13.0499 5.7827 13.3574C5.7827 13.6649 5.5352 13.9199 5.2202 13.9199Z" fill="#838794"/>
<path d="M9.41252 13.9199H6.83252C6.52502 13.9199 6.27002 13.6649 6.27002 13.3574C6.27002 13.0499 6.52502 12.7949 6.83252 12.7949H9.41252C9.72002 12.7949 9.97502 13.0499 9.97502 13.3574C9.97502 13.6649 9.72752 13.9199 9.41252 13.9199Z" fill="#838794"/>
<path d="M14.25 8.89502H1.5V10.02H14.25V8.89502Z" fill="#838794"/>
</svg>
