<svg width="18" height="18" viewBox="0 0 18 18" fill="none" xmlns="http://www.w3.org/2000/svg">
<path opacity="0.4" d="M12.1425 3H5.8575C3.1275 3 1.5 4.6275 1.5 7.3575V12.135C1.5 14.8725 3.1275 16.5 5.8575 16.5H12.135C14.865 16.5 16.4925 14.8725 16.4925 12.1425V7.3575C16.5 4.6275 14.8725 3 12.1425 3Z" fill="#838794"/>
<path d="M15.975 9.17261H13.365C12.63 9.17261 11.9775 9.57761 11.6475 10.2376L11.0175 11.4826C10.8675 11.7826 10.5675 11.9701 10.2375 11.9701H7.7775C7.545 11.9701 7.215 11.9176 6.9975 11.4826L6.3675 10.2451C6.0375 9.59261 5.3775 9.18011 4.65 9.18011H2.025C1.7325 9.18011 1.5 9.41261 1.5 9.70511V12.1501C1.5 14.8726 3.135 16.5001 5.865 16.5001H12.15C14.7225 16.5001 16.305 15.0901 16.5 12.5851V9.69761C16.5 9.41261 16.2675 9.17261 15.975 9.17261Z" fill="#838794"/>
<path d="M10.8976 4.8525C10.6801 4.635 10.3201 4.635 10.1026 4.8525L9.56258 5.3925V1.5C9.56258 1.1925 9.30758 0.9375 9.00008 0.9375C8.69258 0.9375 8.43758 1.1925 8.43758 1.5V5.3925L7.89758 4.8525C7.68008 4.635 7.32008 4.635 7.10258 4.8525C6.88508 5.07 6.88508 5.43 7.10258 5.6475L8.60258 7.1475C8.61008 7.155 8.61758 7.155 8.61758 7.1625C8.66258 7.2075 8.72258 7.245 8.78258 7.275C8.85758 7.2975 8.92508 7.3125 9.00008 7.3125C9.07508 7.3125 9.14258 7.2975 9.21008 7.2675C9.27758 7.2375 9.33758 7.2 9.39758 7.1475L10.8976 5.6475C11.1151 5.43 11.1151 5.07 10.8976 4.8525Z" fill="#838794"/>
</svg>
