<svg width="16" height="16" viewBox="0 0 16 16" fill="none" xmlns="http://www.w3.org/2000/svg">
<path opacity="0.4" d="M13.667 6.79325H11.7403C10.1603 6.79325 8.87366 5.50659 8.87366 3.92659V1.99992C8.87366 1.63325 8.57366 1.33325 8.20699 1.33325H5.38033C3.32699 1.33325 1.66699 2.66659 1.66699 5.04659V10.9533C1.66699 13.3333 3.32699 14.6666 5.38033 14.6666H10.6203C12.6737 14.6666 14.3337 13.3333 14.3337 10.9533V7.45992C14.3337 7.09325 14.0337 6.79325 13.667 6.79325Z" fill="#035638"/>
<path d="M10.5338 1.47341C10.2604 1.20008 9.78711 1.38674 9.78711 1.76674V4.09341C9.78711 5.06674 10.6138 5.87341 11.6204 5.87341C12.2538 5.88008 13.1338 5.88008 13.8871 5.88008C14.2671 5.88008 14.4671 5.43341 14.2004 5.16674C13.2404 4.20008 11.5204 2.46008 10.5338 1.47341Z" fill="#035638"/>
<path d="M9 9.16675H5C4.72667 9.16675 4.5 8.94008 4.5 8.66675C4.5 8.39341 4.72667 8.16675 5 8.16675H9C9.27333 8.16675 9.5 8.39341 9.5 8.66675C9.5 8.94008 9.27333 9.16675 9 9.16675Z" fill="#035638"/>
<path d="M7.66667 11.8333H5C4.72667 11.8333 4.5 11.6066 4.5 11.3333C4.5 11.0599 4.72667 10.8333 5 10.8333H7.66667C7.94 10.8333 8.16667 11.0599 8.16667 11.3333C8.16667 11.6066 7.94 11.8333 7.66667 11.8333Z" fill="#035638"/>
</svg>
