<svg width="15" height="21" viewBox="0 0 15 21" fill="none" xmlns="http://www.w3.org/2000/svg">
<g clip-path="url(#clip0_1052_4513)">
<path d="M14.9225 1.08547V3.90824C14.9225 4.50784 14.4324 4.99371 13.8281 4.99371H6.56677C5.72072 4.99371 5.03484 5.67398 5.03484 6.51342V8.90195C5.03484 9.50124 4.54466 9.98742 3.94043 9.98742H1.09441C0.489866 9.98742 0 9.50124 0 8.90195V6.07918C0 5.47957 0.489866 4.99371 1.09441 4.99371H3.42657C4.27293 4.99371 4.95881 4.31344 4.95881 3.47399V1.08547C4.95881 0.485864 5.44867 0 6.05322 0H13.8281C14.4324 0 14.9225 0.485864 14.9225 1.08547Z" fill="#E5EE7D"/>
<path d="M2.14031 20.7459H4.98633C5.59087 20.7459 6.08074 20.2598 6.08074 19.6605V12.4584C6.08074 11.6193 6.76662 10.939 7.61298 10.939H10.0212C10.6254 10.939 11.1156 10.4528 11.1156 9.85355V7.03078C11.1156 6.43118 10.6254 5.94531 10.0212 5.94531H7.17515C6.57061 5.94531 6.08074 6.43118 6.08074 7.03078V9.34389C6.08074 10.1833 5.39487 10.8636 4.54851 10.8636H2.14031C1.53576 10.8636 1.0459 11.3495 1.0459 11.9491V19.6605C1.0459 20.2598 1.53576 20.7459 2.14031 20.7459Z" fill="#035638"/>
</g>
<defs>
<clipPath id="clip0_1052_4513">
<rect width="14.9225" height="20.746" fill="white"/>
</clipPath>
</defs>
</svg>
