<svg width="83" height="19" viewBox="0 0 83 19" fill="none" xmlns="http://www.w3.org/2000/svg">
<path d="M1.92155 14.8862C1.28103 14.8862 0.797377 14.7189 0.470583 14.3842C0.156861 14.0496 0 13.6312 0 13.1292V1.93077C0 1.37728 0.156861 0.920334 0.470583 0.559923C0.797377 0.186641 1.28103 0 1.92155 0C2.4967 0 2.94114 0.186641 3.25487 0.559923C3.56859 0.920334 3.72545 1.36441 3.72545 1.89216V13.1292C3.72545 13.6312 3.56859 14.0496 3.25487 14.3842C2.94114 14.7189 2.4967 14.8862 1.92155 14.8862Z" fill="#035638"/>
<path d="M9.65339 14.9249C8.12399 14.9249 6.90178 14.4808 5.98676 13.5926C5.08481 12.6916 4.63383 11.4237 4.63383 9.78901C4.63383 8.78501 4.84298 7.90329 5.26128 7.14385C5.67957 6.38442 6.26127 5.79231 7.00636 5.36754C7.76452 4.9299 8.64686 4.71108 9.65339 4.71108C10.7776 4.71108 11.7122 4.9299 12.4573 5.36754C13.2024 5.79231 13.7579 6.38442 14.1239 7.14385C14.503 7.90329 14.6925 8.78501 14.6925 9.78901C14.6925 11.4237 14.2743 12.6916 13.4377 13.5926C12.6141 14.4808 11.3527 14.9249 9.65339 14.9249ZM6.96714 9.46078C6.96714 9.85981 7.16975 10.143 7.57498 10.3103C7.9802 10.4648 8.67301 10.542 9.65339 10.542C10.6338 10.542 11.3266 10.4648 11.7318 10.3103C12.137 10.143 12.3396 9.85981 12.3396 9.46078C12.3396 9.07463 12.137 8.80432 11.7318 8.64986C11.3266 8.49539 10.6338 8.41816 9.65339 8.41816C8.67301 8.41816 7.9802 8.49539 7.57498 8.64986C7.16975 8.80432 6.96714 9.07463 6.96714 9.46078Z" fill="#035638"/>
<path d="M19.4858 14.8862C18.7277 14.8862 18.1068 14.6417 17.6231 14.1526C17.1525 13.6634 16.7212 12.8589 16.329 11.7391L14.8388 7.37555C14.6689 6.88642 14.6624 6.39085 14.8192 5.88885C14.9761 5.38685 15.3356 5.04575 15.8976 4.86554C16.4205 4.68534 16.8976 4.69821 17.329 4.90416C17.7604 5.11011 18.061 5.46408 18.231 5.96608L19.8388 10.6965C20.0218 11.25 20.2113 11.6232 20.4074 11.8163C20.6035 11.9965 20.8649 12.0351 21.1917 11.9322C21.4662 11.8421 21.6361 11.649 21.7015 11.3529C21.7799 11.044 21.6884 10.5163 21.427 9.7697L20.6231 7.37555C20.4532 6.87355 20.4466 6.37798 20.6035 5.88885C20.7734 5.38685 21.1394 5.04575 21.7015 4.86554C22.2244 4.68534 22.7015 4.69821 23.1329 4.90416C23.5642 5.11011 23.8649 5.46408 24.0348 5.96608L25.6819 10.9089C25.7864 11.2049 25.9498 11.4752 26.172 11.7198C26.3943 11.9643 26.6818 12.0351 27.0348 11.9322C27.3093 11.8421 27.4858 11.6619 27.5642 11.3916C27.6557 11.1212 27.6426 10.8059 27.525 10.4455C27.3681 9.95634 27.1916 9.57019 26.9956 9.28701C26.8126 9.00383 26.6296 8.75927 26.4466 8.55332C26.2766 8.34737 26.1328 8.12855 26.0152 7.89685C25.9106 7.66516 25.8453 7.3498 25.8191 6.95078C25.793 6.53888 25.8779 6.17847 26.074 5.86955C26.2832 5.54775 26.5577 5.29675 26.8975 5.11654C27.2505 4.93634 27.6361 4.84624 28.0544 4.84624C28.6949 4.84624 29.2112 5.05862 29.6034 5.48339C30.0086 5.89529 30.2112 6.38442 30.2112 6.95078C30.2112 7.15673 30.1785 7.42703 30.1132 7.7617C30.0478 8.09637 29.9629 8.40529 29.8583 8.68847L29.0348 10.793C28.8648 11.2564 28.6688 11.7327 28.4465 12.2218C28.2374 12.698 27.989 13.1357 27.7014 13.5347C27.4269 13.9337 27.1067 14.262 26.7407 14.5194C26.3747 14.764 25.9498 14.8862 25.4662 14.8862C24.6296 14.8862 23.9564 14.6739 23.4466 14.2491C22.9499 13.8243 22.5577 13.1228 22.2701 12.1446H22.0741C21.9041 12.9426 21.6231 13.5991 21.2309 14.1139C20.8388 14.6288 20.2571 14.8862 19.4858 14.8862Z" fill="#035638"/>
<path d="M37.7713 14.8862C37.0524 14.8862 36.4511 14.6674 35.9674 14.2298C35.4969 13.7921 35.1962 13.2258 35.0655 12.5307H34.7125V16.9715C34.7125 17.4992 34.5622 17.9433 34.2616 18.3037C33.9609 18.677 33.5034 18.8636 32.889 18.8636C32.3008 18.8636 31.8433 18.677 31.5165 18.3037C31.2028 17.9433 31.0459 17.4864 31.0459 16.9329V9.71178C31.0459 9.06819 31.0198 8.52757 30.9675 8.08993C30.9283 7.63942 30.8891 7.23396 30.8498 6.87355C30.7976 6.33293 30.9087 5.87598 31.1832 5.5027C31.4577 5.11654 31.9021 4.88485 32.5165 4.80762C33.3139 4.70465 33.876 4.84624 34.2027 5.23239C34.5426 5.60567 34.7125 6.19134 34.7125 6.98939V7.91616L34.791 7.93547C34.8563 7.43347 35.0067 6.94434 35.242 6.46808C35.4903 5.97896 35.8367 5.57993 36.2812 5.27101C36.7256 4.94921 37.2877 4.78831 37.9674 4.78831C39.1047 4.78831 39.9478 5.23883 40.4968 6.13985C41.0589 7.02801 41.3399 8.21865 41.3399 9.71178C41.3399 13.1614 40.1504 14.8862 37.7713 14.8862ZM34.6341 9.67316C34.6341 9.87911 34.6603 10.04 34.7125 10.1559C34.791 10.4004 34.9544 10.5806 35.2027 10.6965C35.4642 10.7994 35.8498 10.8509 36.3596 10.8509C37.0132 10.8509 37.4576 10.7544 37.6929 10.5613C37.9413 10.3682 38.0655 10.0722 38.0655 9.67316C38.0655 9.26127 37.9478 8.96522 37.7125 8.78501C37.4772 8.59193 37.0328 8.49539 36.3792 8.49539C35.8563 8.49539 35.4642 8.55332 35.2027 8.66916C34.9544 8.77214 34.791 8.94591 34.7125 9.19047C34.6603 9.30632 34.6341 9.46722 34.6341 9.67316Z" fill="#035638"/>
<path d="M42.0492 9.86624C42.0492 8.84937 42.2518 7.95478 42.657 7.18247C43.0753 6.41016 43.6635 5.80519 44.4217 5.36754C45.1929 4.9299 46.1079 4.71108 47.1668 4.71108C47.9903 4.71108 48.7288 4.85911 49.3824 5.15516C50.0491 5.45121 50.572 5.85024 50.951 6.35224C51.3301 6.84137 51.5197 7.38198 51.5197 7.97409C51.5197 8.59193 51.3367 9.02957 50.9706 9.28701C50.6046 9.54445 50.0622 9.67316 49.3432 9.67316H45.2256C45.2256 10.0078 45.3563 10.2846 45.6178 10.5034C45.8923 10.7222 46.3498 10.8316 46.9903 10.8316C47.3171 10.8316 47.6177 10.7994 47.8922 10.7351C48.1798 10.6707 48.4674 10.6128 48.755 10.5613C49.0556 10.497 49.389 10.4648 49.755 10.4648C50.2778 10.4648 50.7092 10.6514 51.0491 11.0247C51.3889 11.3851 51.5589 11.8871 51.5589 12.5307C51.5589 13.2901 51.1602 13.8822 50.3628 14.307C49.5785 14.7318 48.5458 14.9442 47.2648 14.9442C46.3629 14.9442 45.5132 14.7704 44.7158 14.4229C43.9315 14.0753 43.291 13.5283 42.7943 12.7817C42.2975 12.0223 42.0492 11.0504 42.0492 9.86624ZM48.402 9.03601C48.5981 9.03601 48.6635 8.94591 48.5981 8.7657C48.5458 8.5855 48.389 8.39886 48.1275 8.20578C47.8661 8.0127 47.487 7.91616 46.9903 7.91616C46.4151 7.91616 45.9838 8.03844 45.6962 8.28301C45.4217 8.52757 45.2844 8.77857 45.2844 9.03601H48.402Z" fill="#035638"/>
<path d="M54.3503 14.8862C53.7752 14.8862 53.3111 14.7189 52.9582 14.3842C52.6183 14.0367 52.4484 13.6119 52.4484 13.1099V6.71908C52.4484 6.17847 52.6118 5.72152 52.9386 5.34824C53.2654 4.97495 53.736 4.78831 54.3503 4.78831C54.9516 4.78831 55.4092 4.97495 55.7229 5.34824C56.0366 5.72152 56.1935 6.19134 56.1935 6.7577V7.72308H56.5464C56.5464 6.98939 56.6771 6.41016 56.9386 5.98539C57.2131 5.56062 57.5595 5.25813 57.9778 5.07793C58.3961 4.88485 58.8144 4.78831 59.2326 4.78831C60.2392 4.78831 60.9777 5.14872 61.4483 5.86955C61.9189 6.57749 62.1542 7.58793 62.1542 8.90086V13.1099C62.1542 13.6119 61.9843 14.0367 61.6444 14.3842C61.3045 14.7189 60.847 14.8862 60.2719 14.8862C59.6836 14.8862 59.213 14.7189 58.8601 14.3842C58.5202 14.0367 58.3503 13.6119 58.3503 13.1099V9.69247C58.3503 9.22909 58.2588 8.86868 58.0758 8.61124C57.9059 8.3538 57.651 8.22509 57.3111 8.22509C56.9189 8.22509 56.6314 8.36668 56.4484 8.64986C56.2784 8.93303 56.1935 9.29345 56.1935 9.73109V13.1099C56.1935 13.6119 56.0301 14.0367 55.7033 14.3842C55.3765 14.7189 54.9255 14.8862 54.3503 14.8862Z" fill="#035638"/>
<path d="M68.1125 15.1372C67.2105 15.1372 66.3739 15.0536 65.6027 14.8862C64.8445 14.706 64.2367 14.4293 63.7792 14.056C63.3217 13.6699 63.0929 13.1614 63.0929 12.5307C63.0929 11.9772 63.2628 11.5203 63.6027 11.1599C63.9426 10.7994 64.3935 10.6192 64.9556 10.6192C65.3086 10.6192 65.6615 10.6772 66.0144 10.793C66.3804 10.896 66.7661 10.999 67.1713 11.1019C67.5765 11.2049 68.0144 11.2564 68.485 11.2564C68.9033 11.2564 69.1843 11.2371 69.3281 11.1985C69.4719 11.147 69.5438 11.0569 69.5438 10.9282C69.5438 10.7737 69.4523 10.6707 69.2693 10.6192C69.0994 10.5678 68.8053 10.5034 68.387 10.4262L66.9752 10.1559C66.387 10.04 65.8118 9.89199 65.2497 9.71178C64.7007 9.5187 64.2432 9.23552 63.8772 8.86224C63.5243 8.48896 63.3478 7.98052 63.3478 7.33693C63.3478 6.46165 63.74 5.77944 64.5243 5.29031C65.3216 4.80119 66.472 4.55662 67.9752 4.55662C68.8379 4.55662 69.6092 4.64029 70.2889 4.80762C70.9817 4.97495 71.5307 5.22595 71.9359 5.56062C72.3412 5.88242 72.5438 6.28788 72.5438 6.77701C72.5568 7.30475 72.4131 7.72952 72.1124 8.05132C71.8118 8.37311 71.4327 8.53401 70.9752 8.53401C70.6484 8.53401 70.315 8.49539 69.9752 8.41816C69.6484 8.32806 69.2889 8.23796 68.8968 8.14786C68.5177 8.04488 68.0798 7.98696 67.583 7.97409C67.2301 7.94834 66.9425 7.96765 66.7203 8.03201C66.4981 8.09637 66.387 8.19934 66.387 8.34093C66.387 8.49539 66.5177 8.6048 66.7791 8.66916C67.0406 8.72065 67.4327 8.79144 67.9556 8.88155L69.3477 9.13255C70.1974 9.27414 70.8706 9.45434 71.3673 9.67316C71.8771 9.87911 72.2431 10.1687 72.4653 10.542C72.6876 10.9153 72.7987 11.4302 72.7987 12.0866C72.7987 12.7688 72.5961 13.3416 72.1908 13.805C71.7987 14.2555 71.2497 14.5902 70.5438 14.809C69.8379 15.0278 69.0275 15.1372 68.1125 15.1372Z" fill="#035638"/>
<path d="M73.4903 9.86624C73.4903 8.84937 73.6929 7.95478 74.0981 7.18247C74.5164 6.41016 75.1047 5.80519 75.8628 5.36754C76.6341 4.9299 77.5491 4.71108 78.6079 4.71108C79.4314 4.71108 80.17 4.85911 80.8236 5.15516C81.4902 5.45121 82.0131 5.85024 82.3922 6.35224C82.7712 6.84137 82.9608 7.38198 82.9608 7.97409C82.9608 8.59193 82.7778 9.02957 82.4118 9.28701C82.0458 9.54445 81.5033 9.67316 80.7843 9.67316H76.6667C76.6667 10.0078 76.7975 10.2846 77.0589 10.5034C77.3334 10.7222 77.7909 10.8316 78.4314 10.8316C78.7582 10.8316 79.0589 10.7994 79.3334 10.7351C79.6209 10.6707 79.9085 10.6128 80.1961 10.5613C80.4968 10.497 80.8301 10.4648 81.1961 10.4648C81.719 10.4648 82.1503 10.6514 82.4902 11.0247C82.8301 11.3851 83 11.8871 83 12.5307C83 13.2901 82.6013 13.8822 81.8039 14.307C81.0196 14.7318 79.987 14.9442 78.7059 14.9442C77.804 14.9442 76.9543 14.7704 76.1569 14.4229C75.3726 14.0753 74.7321 13.5283 74.2354 12.7817C73.7387 12.0223 73.4903 11.0504 73.4903 9.86624ZM79.8432 9.03601C80.0393 9.03601 80.1046 8.94591 80.0392 8.7657C79.987 8.5855 79.8301 8.39886 79.5687 8.20578C79.3072 8.0127 78.9282 7.91616 78.4314 7.91616C77.8563 7.91616 77.4249 8.03844 77.1373 8.28301C76.8628 8.52757 76.7256 8.77857 76.7256 9.03601H79.8432Z" fill="#035638"/>
</svg>
