<svg width="32" height="32" viewBox="0 0 32 32" fill="none" xmlns="http://www.w3.org/2000/svg">
<g filter="url(#filter0_d_47_1638)">
<rect x="4" y="3" width="24" height="24" rx="8" fill="#F7FAD7" shape-rendering="crispEdges"/>
<path opacity="0.4" d="M20.8663 12.28V15.7133C20.8663 17.7667 19.693 18.6466 17.933 18.6466H12.073C11.773 18.6466 11.4863 18.62 11.2196 18.56C11.053 18.5334 10.893 18.4867 10.7463 18.4333C9.74632 18.06 9.13965 17.1933 9.13965 15.7133V12.28C9.13965 10.2267 10.313 9.34668 12.073 9.34668H17.933C19.4263 9.34668 20.4996 9.98001 20.7863 11.4267C20.833 11.6933 20.8663 11.9667 20.8663 12.28Z" fill="#035638"/>
<path d="M22.8664 14.28V17.7133C22.8664 19.7667 21.6931 20.6467 19.9331 20.6467H14.0731C13.5797 20.6467 13.1331 20.58 12.7464 20.4334C11.9531 20.14 11.4131 19.5334 11.2197 18.56C11.4864 18.62 11.7731 18.6467 12.0731 18.6467H17.9331C19.6931 18.6467 20.8664 17.7667 20.8664 15.7133V12.28C20.8664 11.9667 20.8397 11.6867 20.7864 11.4267C22.0531 11.6933 22.8664 12.5867 22.8664 14.28Z" fill="#035638"/>
<path d="M15.0002 15.76C15.9723 15.76 16.7603 14.972 16.7603 14C16.7603 13.028 15.9723 12.24 15.0002 12.24C14.0282 12.24 13.2402 13.028 13.2402 14C13.2402 14.972 14.0282 15.76 15.0002 15.76Z" fill="#035638"/>
<path d="M11.1865 12.5C10.9132 12.5 10.6865 12.7267 10.6865 13V15C10.6865 15.2733 10.9132 15.5 11.1865 15.5C11.4599 15.5 11.6865 15.2733 11.6865 15V13C11.6865 12.7267 11.4665 12.5 11.1865 12.5Z" fill="#035638"/>
<path d="M18.8066 12.5C18.5333 12.5 18.3066 12.7267 18.3066 13V15C18.3066 15.2733 18.5333 15.5 18.8066 15.5C19.08 15.5 19.3066 15.2733 19.3066 15V13C19.3066 12.7267 19.0866 12.5 18.8066 12.5Z" fill="#292D32"/>
</g>
<defs>
<filter id="filter0_d_47_1638" x="0" y="0" width="32" height="32" filterUnits="userSpaceOnUse" color-interpolation-filters="sRGB">
<feFlood flood-opacity="0" result="BackgroundImageFix"/>
<feColorMatrix in="SourceAlpha" type="matrix" values="0 0 0 0 0 0 0 0 0 0 0 0 0 0 0 0 0 0 127 0" result="hardAlpha"/>
<feOffset dy="1"/>
<feGaussianBlur stdDeviation="2"/>
<feComposite in2="hardAlpha" operator="out"/>
<feColorMatrix type="matrix" values="0 0 0 0 0.0470588 0 0 0 0 0.0470588 0 0 0 0 0.0509804 0 0 0 0.05 0"/>
<feBlend mode="normal" in2="BackgroundImageFix" result="effect1_dropShadow_47_1638"/>
<feBlend mode="normal" in="SourceGraphic" in2="effect1_dropShadow_47_1638" result="shape"/>
</filter>
</defs>
</svg>
