<svg width="32" height="32" viewBox="0 0 32 32" fill="none" xmlns="http://www.w3.org/2000/svg">
<g filter="url(#filter0_d_47_1627)">
<rect x="4" y="3" width="24" height="24" rx="8" fill="#F7FAD7" shape-rendering="crispEdges"/>
<path d="M20.6003 17.02C19.1269 17.02 17.9336 18.2133 17.9336 19.6867C17.9336 21.16 19.1269 22.3533 20.6003 22.3533C22.0736 22.3533 23.2669 21.16 23.2669 19.6867C23.2669 18.2133 22.0736 17.02 20.6003 17.02ZM21.6669 20.7867C21.5669 20.8867 21.4402 20.9333 21.3136 20.9333C21.1869 20.9333 21.0602 20.8867 20.9602 20.7867L20.6069 20.4333L20.2402 20.8C20.1402 20.9 20.0136 20.9467 19.8869 20.9467C19.7603 20.9467 19.6336 20.9 19.5336 20.8C19.3402 20.6067 19.3402 20.2867 19.5336 20.0933L19.9002 19.7267L19.5469 19.3733C19.3536 19.18 19.3536 18.86 19.5469 18.6667C19.7402 18.4733 20.0602 18.4733 20.2536 18.6667L20.6069 19.02L20.9402 18.6867C21.1336 18.4933 21.4536 18.4933 21.6469 18.6867C21.8402 18.88 21.8402 19.2 21.6469 19.3933L21.3136 19.7267L21.6669 20.08C21.8602 20.2733 21.8602 20.5933 21.6669 20.7867Z" fill="#035638"/>
<path d="M22.6663 12.0267V13H9.33301V12.0267C9.33301 10.5 10.573 9.26666 12.0997 9.26666H19.8997C21.4263 9.26666 22.6663 10.5 22.6663 12.0267Z" fill="#035638"/>
<path opacity="0.4" d="M9.33301 13V17.9733C9.33301 19.5 10.5664 20.7333 12.093 20.7333H16.2664C16.653 20.7333 16.9863 20.4067 16.953 20.02C16.8597 19 17.1864 17.8933 18.093 17.0133C18.4664 16.6467 18.9264 16.3667 19.4264 16.2067C20.2597 15.94 21.0663 15.9733 21.7797 16.2133C22.213 16.36 22.6663 16.0467 22.6663 15.5867V13H9.33301ZM13.333 18.5H11.9997C11.7263 18.5 11.4997 18.2733 11.4997 18C11.4997 17.7267 11.7263 17.5 11.9997 17.5H13.333C13.6063 17.5 13.833 17.7267 13.833 18C13.833 18.2733 13.6063 18.5 13.333 18.5Z" fill="#035638"/>
<path d="M13.8333 18C13.8333 18.2733 13.6067 18.5 13.3333 18.5H12C11.7267 18.5 11.5 18.2733 11.5 18C11.5 17.7267 11.7267 17.5 12 17.5H13.3333C13.6067 17.5 13.8333 17.7267 13.8333 18Z" fill="#035638"/>
</g>
<defs>
<filter id="filter0_d_47_1627" x="0" y="0" width="32" height="32" filterUnits="userSpaceOnUse" color-interpolation-filters="sRGB">
<feFlood flood-opacity="0" result="BackgroundImageFix"/>
<feColorMatrix in="SourceAlpha" type="matrix" values="0 0 0 0 0 0 0 0 0 0 0 0 0 0 0 0 0 0 127 0" result="hardAlpha"/>
<feOffset dy="1"/>
<feGaussianBlur stdDeviation="2"/>
<feComposite in2="hardAlpha" operator="out"/>
<feColorMatrix type="matrix" values="0 0 0 0 0.0470588 0 0 0 0 0.0470588 0 0 0 0 0.0509804 0 0 0 0.05 0"/>
<feBlend mode="normal" in2="BackgroundImageFix" result="effect1_dropShadow_47_1627"/>
<feBlend mode="normal" in="SourceGraphic" in2="effect1_dropShadow_47_1627" result="shape"/>
</filter>
</defs>
</svg>
