<svg width="20" height="21" viewBox="0 0 20 21" fill="none" xmlns="http://www.w3.org/2000/svg">
<path d="M14.1666 8.50594V6.83927C14.1666 4.53809 12.3011 2.67261 9.99992 2.67261C7.69873 2.67261 5.83325 4.53809 5.83325 6.83927V8.50594M9.99992 12.2559V13.9226M7.33325 17.6726H12.6666C14.0667 17.6726 14.7668 17.6726 15.3016 17.4001C15.772 17.1604 16.1544 16.778 16.3941 16.3076C16.6666 15.7728 16.6666 15.0727 16.6666 13.6726V12.5059C16.6666 11.1058 16.6666 10.4057 16.3941 9.87096C16.1544 9.40056 15.772 9.01811 15.3016 8.77842C14.7668 8.50594 14.0667 8.50594 12.6666 8.50594H7.33325C5.93312 8.50594 5.23306 8.50594 4.69828 8.77842C4.22787 9.01811 3.84542 9.40056 3.60574 9.87096C3.33325 10.4057 3.33325 11.1058 3.33325 12.5059V13.6726C3.33325 15.0727 3.33325 15.7728 3.60574 16.3076C3.84542 16.778 4.22787 17.1604 4.69828 17.4001C5.23306 17.6726 5.93312 17.6726 7.33325 17.6726Z" stroke="#00000A" stroke-width="1.5" stroke-linecap="round" stroke-linejoin="round"/>
</svg>
