<svg width="20" height="21" viewBox="0 0 20 21" fill="none" xmlns="http://www.w3.org/2000/svg">
<path d="M1.66675 6.00586L8.47085 10.7687C9.02182 11.1544 9.29731 11.3473 9.59697 11.4219C9.86166 11.4879 10.1385 11.4879 10.4032 11.4219C10.7029 11.3473 10.9783 11.1544 11.5293 10.7687L18.3334 6.00586M5.66675 16.8392H14.3334C15.7335 16.8392 16.4336 16.8392 16.9684 16.5667C17.4388 16.327 17.8212 15.9446 18.0609 15.4742C18.3334 14.9394 18.3334 14.2393 18.3334 12.8392V7.50586C18.3334 6.10573 18.3334 5.40566 18.0609 4.87088C17.8212 4.40048 17.4388 4.01803 16.9684 3.77834C16.4336 3.50586 15.7335 3.50586 14.3334 3.50586H5.66675C4.26662 3.50586 3.56655 3.50586 3.03177 3.77834C2.56137 4.01803 2.17892 4.40048 1.93923 4.87088C1.66675 5.40566 1.66675 6.10573 1.66675 7.50586V12.8392C1.66675 14.2393 1.66675 14.9394 1.93923 15.4742C2.17892 15.9446 2.56137 16.327 3.03177 16.5667C3.56655 16.8392 4.26662 16.8392 5.66675 16.8392Z" stroke="#00000A" stroke-width="1.5" stroke-linecap="round" stroke-linejoin="round"/>
</svg>
