<svg width="20" height="20" viewBox="0 0 20 20" fill="none" xmlns="http://www.w3.org/2000/svg">
<path d="M10.0001 12.5C11.3808 12.5 12.5001 11.3807 12.5001 10C12.5001 8.61931 11.3808 7.50002 10.0001 7.50002C8.61937 7.50002 7.50008 8.61931 7.50008 10C7.50008 11.3807 8.61937 12.5 10.0001 12.5Z" stroke="#00000A" stroke-width="1.5" stroke-linecap="round" stroke-linejoin="round"/>
<path d="M7.74099 16.1426L8.22802 17.238C8.37281 17.564 8.60909 17.8411 8.90821 18.0355C9.20733 18.23 9.55645 18.3334 9.91321 18.3334C10.27 18.3334 10.6191 18.23 10.9182 18.0355C11.2173 17.8411 11.4536 17.564 11.5984 17.238L12.0854 16.1426C12.2588 15.7539 12.5504 15.4299 12.9188 15.2167C13.2894 15.0029 13.7182 14.9118 14.1438 14.9565L15.3354 15.0834C15.6902 15.1209 16.0481 15.0547 16.366 14.8928C16.6839 14.7309 16.9479 14.4803 17.1262 14.1713C17.3047 13.8625 17.3897 13.5086 17.3709 13.1524C17.3522 12.7963 17.2305 12.4532 17.0206 12.1648L16.3151 11.1954C16.0638 10.8476 15.9296 10.429 15.9317 10C15.9316 9.57218 16.0671 9.15531 16.3188 8.80928L17.0243 7.83984C17.2342 7.55148 17.3559 7.20841 17.3747 6.85225C17.3934 6.49609 17.3084 6.14214 17.1299 5.83335C16.9516 5.52438 16.6876 5.27376 16.3697 5.11188C16.0519 4.94999 15.6939 4.8838 15.3391 4.92132L14.1475 5.04817C13.7219 5.09286 13.2931 5.00179 12.9225 4.78798C12.5534 4.57356 12.2617 4.24782 12.0891 3.85743L11.5984 2.76206C11.4536 2.436 11.2173 2.15895 10.9182 1.96452C10.6191 1.77009 10.27 1.66663 9.91321 1.66669C9.55645 1.66663 9.20733 1.77009 8.90821 1.96452C8.60909 2.15895 8.37281 2.436 8.22802 2.76206L7.74099 3.85743C7.56843 4.24782 7.27671 4.57356 6.90765 4.78798C6.537 5.00179 6.10821 5.09286 5.68265 5.04817L4.48728 4.92132C4.13256 4.8838 3.77456 4.94999 3.45671 5.11188C3.13886 5.27376 2.8748 5.52438 2.69654 5.83335C2.51806 6.14214 2.43303 6.49609 2.45176 6.85225C2.4705 7.20841 2.5922 7.55148 2.8021 7.83984L3.50765 8.80928C3.75927 9.15531 3.89477 9.57218 3.89469 10C3.89477 10.4279 3.75927 10.8447 3.50765 11.1908L2.8021 12.1602C2.5922 12.4486 2.4705 12.7916 2.45176 13.1478C2.43303 13.504 2.51806 13.8579 2.69654 14.1667C2.87497 14.4755 3.13907 14.726 3.45687 14.8878C3.77468 15.0497 4.13258 15.116 4.48728 15.0787L5.67895 14.9519C6.10451 14.9072 6.5333 14.9983 6.90395 15.2121C7.27439 15.4259 7.56746 15.7517 7.74099 16.1426Z" stroke="#00000A" stroke-width="1.5" stroke-linecap="round" stroke-linejoin="round"/>
</svg>
