<svg width="18" height="18" viewBox="0 0 18 18" fill="none" xmlns="http://www.w3.org/2000/svg">
<path opacity="0.4" d="M1.5 9.66007V8.34007C1.5 7.56007 2.1375 6.91507 2.925 6.91507C4.2825 6.91507 4.8375 5.95507 4.155 4.77757C3.765 4.10257 3.9975 3.22507 4.68 2.83507L5.9775 2.09257C6.57 1.74007 7.335 1.95007 7.6875 2.54257L7.77 2.68507C8.445 3.86257 9.555 3.86257 10.2375 2.68507L10.32 2.54257C10.6725 1.95007 11.4375 1.74007 12.03 2.09257L13.3275 2.83507C14.01 3.22507 14.2425 4.10257 13.8525 4.77757C13.17 5.95507 13.725 6.91507 15.0825 6.91507C15.8625 6.91507 16.5075 7.55257 16.5075 8.34007V9.66007C16.5075 10.4401 15.87 11.0851 15.0825 11.0851C13.725 11.0851 13.17 12.0451 13.8525 13.2226C14.2425 13.9051 14.01 14.7751 13.3275 15.1651L12.03 15.9076C11.4375 16.2601 10.6725 16.0501 10.32 15.4576L10.2375 15.3151C9.5625 14.1376 8.4525 14.1376 7.77 15.3151L7.6875 15.4576C7.335 16.0501 6.57 16.2601 5.9775 15.9076L4.68 15.1651C3.9975 14.7751 3.765 13.8976 4.155 13.2226C4.8375 12.0451 4.2825 11.0851 2.925 11.0851C2.1375 11.0851 1.5 10.4401 1.5 9.66007Z" fill="#838794"/>
<path d="M9 11.4375C10.3462 11.4375 11.4375 10.3462 11.4375 9C11.4375 7.65381 10.3462 6.5625 9 6.5625C7.65381 6.5625 6.5625 7.65381 6.5625 9C6.5625 10.3462 7.65381 11.4375 9 11.4375Z" fill="#838794"/>
</svg>
