<svg width="32" height="32" viewBox="0 0 32 32" fill="none" xmlns="http://www.w3.org/2000/svg">
<g filter="url(#filter0_d_47_1616)">
<rect x="4" y="3" width="24" height="24" rx="8" fill="#F7FAD7" shape-rendering="crispEdges"/>
<path opacity="0.4" d="M22.6663 12.18V13H9.33301V12.0267C9.33301 10.5 10.573 9.26666 12.0997 9.26666H18.6663V10.98C18.6663 11.8267 19.173 12.3333 20.0197 12.3333H21.9797C22.2463 12.3333 22.473 12.2867 22.6663 12.18Z" fill="#035638"/>
<path d="M9.33301 13V17.9733C9.33301 19.5 10.573 20.7333 12.0997 20.7333H19.8997C21.4263 20.7333 22.6663 19.5 22.6663 17.9733V13H9.33301ZM13.333 18.5H11.9997C11.7263 18.5 11.4997 18.2733 11.4997 18C11.4997 17.7267 11.7263 17.5 11.9997 17.5H13.333C13.6063 17.5 13.833 17.7267 13.833 18C13.833 18.2733 13.6063 18.5 13.333 18.5ZM17.6663 18.5H14.9997C14.7263 18.5 14.4997 18.2733 14.4997 18C14.4997 17.7267 14.7263 17.5 14.9997 17.5H17.6663C17.9397 17.5 18.1663 17.7267 18.1663 18C18.1663 18.2733 17.9397 18.5 17.6663 18.5Z" fill="#035638"/>
<path d="M21.9803 7.66667H20.0203C19.1737 7.66667 18.667 8.17334 18.667 9.02001V10.98C18.667 11.8267 19.1737 12.3333 20.0203 12.3333H21.9803C22.827 12.3333 23.3337 11.8267 23.3337 10.98V9.02001C23.3337 8.17334 22.827 7.66667 21.9803 7.66667ZM22.4203 9.30001L20.8403 11.1467C20.7803 11.22 20.687 11.2667 20.5937 11.2667C20.587 11.2667 20.587 11.2667 20.5803 11.2667C20.487 11.2667 20.4003 11.2333 20.3337 11.1667L19.6003 10.4467C19.467 10.3133 19.467 10.0933 19.6003 9.96001C19.7337 9.82667 19.9537 9.82001 20.087 9.96001L20.5537 10.42L21.887 8.86001C22.0137 8.71334 22.227 8.70001 22.3737 8.82001C22.527 8.94001 22.5403 9.16001 22.4203 9.30001Z" fill="#035638"/>
</g>
<defs>
<filter id="filter0_d_47_1616" x="0" y="0" width="32" height="32" filterUnits="userSpaceOnUse" color-interpolation-filters="sRGB">
<feFlood flood-opacity="0" result="BackgroundImageFix"/>
<feColorMatrix in="SourceAlpha" type="matrix" values="0 0 0 0 0 0 0 0 0 0 0 0 0 0 0 0 0 0 127 0" result="hardAlpha"/>
<feOffset dy="1"/>
<feGaussianBlur stdDeviation="2"/>
<feComposite in2="hardAlpha" operator="out"/>
<feColorMatrix type="matrix" values="0 0 0 0 0.0470588 0 0 0 0 0.0470588 0 0 0 0 0.0509804 0 0 0 0.05 0"/>
<feBlend mode="normal" in2="BackgroundImageFix" result="effect1_dropShadow_47_1616"/>
<feBlend mode="normal" in="SourceGraphic" in2="effect1_dropShadow_47_1616" result="shape"/>
</filter>
</defs>
</svg>
