<svg width="32" height="32" viewBox="0 0 32 32" fill="none" xmlns="http://www.w3.org/2000/svg">
<g filter="url(#filter0_d_47_1605)">
<rect x="4" y="3" width="24" height="24" rx="8" fill="#F7FAD7" shape-rendering="crispEdges"/>
<path opacity="0.4" d="M20.6663 13.8533V18.62C20.6463 20.52 20.1263 21 18.1463 21H11.853C9.83969 21 9.33301 20.5 9.33301 18.5133V13.8533C9.33301 12.0533 9.75301 11.4733 11.333 11.38C11.493 11.3733 11.6664 11.3667 11.853 11.3667H18.1463C20.1597 11.3667 20.6663 11.8667 20.6663 13.8533Z" fill="#035638"/>
<path d="M22.6663 11.4867V16.1467C22.6663 17.9467 22.2463 18.5267 20.6663 18.62V13.8533C20.6663 11.8667 20.1597 11.3667 18.1463 11.3667H11.853C11.6664 11.3667 11.493 11.3733 11.333 11.38C11.353 9.48 11.873 9 13.853 9H20.1463C22.1597 9 22.6663 9.5 22.6663 11.4867Z" fill="#035638"/>
<path d="M12.6399 19.3733H11.4932C11.2198 19.3733 10.9932 19.1467 10.9932 18.8733C10.9932 18.6 11.2198 18.3733 11.4932 18.3733H12.6399C12.9132 18.3733 13.1399 18.6 13.1399 18.8733C13.1399 19.1467 12.9199 19.3733 12.6399 19.3733Z" fill="#035638"/>
<path d="M16.3666 19.3733H14.0732C13.7999 19.3733 13.5732 19.1467 13.5732 18.8733C13.5732 18.6 13.7999 18.3733 14.0732 18.3733H16.3666C16.6399 18.3733 16.8666 18.6 16.8666 18.8733C16.8666 19.1467 16.6466 19.3733 16.3666 19.3733Z" fill="#035638"/>
<path d="M20.6663 14.9067H9.33301V15.9067H20.6663V14.9067Z" fill="#035638"/>
</g>
<defs>
<filter id="filter0_d_47_1605" x="0" y="0" width="32" height="32" filterUnits="userSpaceOnUse" color-interpolation-filters="sRGB">
<feFlood flood-opacity="0" result="BackgroundImageFix"/>
<feColorMatrix in="SourceAlpha" type="matrix" values="0 0 0 0 0 0 0 0 0 0 0 0 0 0 0 0 0 0 127 0" result="hardAlpha"/>
<feOffset dy="1"/>
<feGaussianBlur stdDeviation="2"/>
<feComposite in2="hardAlpha" operator="out"/>
<feColorMatrix type="matrix" values="0 0 0 0 0.0470588 0 0 0 0 0.0470588 0 0 0 0 0.0509804 0 0 0 0.05 0"/>
<feBlend mode="normal" in2="BackgroundImageFix" result="effect1_dropShadow_47_1605"/>
<feBlend mode="normal" in="SourceGraphic" in2="effect1_dropShadow_47_1605" result="shape"/>
</filter>
</defs>
</svg>
