<svg width="18" height="18" viewBox="0 0 18 18" fill="none" xmlns="http://www.w3.org/2000/svg">
<path opacity="0.8" d="M9.6749 1.89007L9.6524 1.94257L7.4774 6.99007H5.3399C4.8299 6.99007 4.3499 7.08757 3.8999 7.28257L5.2124 4.14757L5.2424 4.08007L5.2874 3.96007C5.3099 3.90757 5.3249 3.86257 5.3474 3.82507C6.3299 1.55257 7.4399 1.03507 9.6749 1.89007Z" fill="#838794"/>
<path d="M13.7175 7.13989C13.38 7.04239 13.0275 6.98989 12.66 6.98989H7.47754L9.65254 1.94239L9.67504 1.88989C9.78004 1.92739 9.89254 1.97989 10.005 2.01739L11.6625 2.71489C12.585 3.09739 13.23 3.49489 13.6275 3.97489C13.695 4.06489 13.755 4.14739 13.815 4.24489C13.8825 4.34989 13.935 4.45489 13.965 4.56739C13.995 4.63489 14.0175 4.69489 14.0325 4.76239C14.2275 5.39989 14.1075 6.17239 13.7175 7.13989Z" fill="#838794"/>
<path opacity="0.4" d="M16.3202 10.65V12.1125C16.3202 12.2625 16.3127 12.4125 16.3052 12.555C16.1627 15.18 14.7002 16.5 11.9252 16.5H6.07518C5.88768 16.5 5.71518 16.485 5.54268 16.4625C3.15768 16.305 1.88268 15.03 1.71768 12.645C1.69518 12.465 1.68018 12.2925 1.68018 12.1125V10.65C1.68018 9.14249 2.59518 7.84499 3.90018 7.28249C4.35018 7.08749 4.83018 6.98999 5.34018 6.98999H12.6602C13.0277 6.98999 13.3802 7.04249 13.7177 7.13999C15.2177 7.59749 16.3202 8.99249 16.3202 10.65Z" fill="#838794"/>
<path opacity="0.6" d="M5.21268 4.14746L3.90018 7.28246C2.59518 7.84496 1.68018 9.14246 1.68018 10.65V8.45246C1.68018 6.32246 3.19518 4.54496 5.21268 4.14746Z" fill="#838794"/>
<path opacity="0.6" d="M16.3198 8.45238V10.6499C16.3198 8.99238 15.2173 7.59738 13.7173 7.13988C14.1073 6.17238 14.2273 5.39988 14.0323 4.76238C14.0173 4.69488 13.9948 4.63488 13.9648 4.56738C15.3673 5.29488 16.3198 6.77238 16.3198 8.45238Z" fill="#292D32"/>
<path d="M10.875 12.5625H7.125C6.8175 12.5625 6.5625 12.3075 6.5625 12C6.5625 11.6925 6.8175 11.4375 7.125 11.4375H10.875C11.1825 11.4375 11.4375 11.6925 11.4375 12C11.4375 12.3075 11.1825 12.5625 10.875 12.5625Z" fill="#292D32"/>
</svg>
